<?xml version="1.0" standalone="no"?>
<!DOCTYPE svg PUBLIC "-//W3C//DTD SVG 20010904//EN"
 "http://www.w3.org/TR/2001/REC-SVG-20010904/DTD/svg10.dtd">
<svg version="1.0" xmlns="http://www.w3.org/2000/svg"
 width="500.000000pt" height="500.000000pt" viewBox="0 0 500.000000 500.000000"
 preserveAspectRatio="xMidYMid meet">

<g transform="translate(0.000000,500.000000) scale(0.100000,-0.100000)"
fill="#000000" stroke="none">
<path d="M2832 4050 c-18 -29 -15 -38 4 -12 9 13 14 25 12 27 -2 2 -9 -5 -16
-15z"/>
<path d="M2265 4010 c4 -6 -9 -11 -32 -12 -24 -1 -15 -4 27 -7 48 -5 67 -3 73
7 5 8 6 16 3 19 -3 4 -6 1 -6 -5 0 -7 -8 -12 -17 -12 -15 0 -16 2 -3 10 11 7
7 10 -18 10 -20 0 -31 -4 -27 -10z"/>
<path d="M2846 3998 c3 -4 -2 -8 -11 -8 -9 0 -13 -4 -10 -10 3 -5 15 -10 26
-10 11 0 17 5 14 10 -3 6 -2 10 4 10 5 0 11 -6 14 -12 4 -10 7 -10 18 0 11 10
11 12 -1 13 -10 0 -7 4 5 9 15 7 10 8 -22 8 -23 -1 -40 -5 -37 -10z"/>
<path d="M2118 3993 c7 -3 16 -2 19 1 4 3 -2 6 -13 5 -11 0 -14 -3 -6 -6z"/>
<path d="M2945 3990 c-25 -11 1 -11 35 0 20 6 21 8 5 8 -11 0 -29 -3 -40 -8z"/>
<path d="M1913 3819 c-51 -25 -88 -67 -116 -129 -16 -35 -21 -67 -21 -147 -1
-95 1 -103 24 -128 45 -49 75 -58 174 -53 157 7 226 64 226 188 0 130 -53 230
-145 271 -53 24 -91 24 -142 -2z"/>
<path d="M3125 3821 c-92 -41 -159 -162 -159 -286 -1 -78 22 -118 83 -144 55
-23 188 -43 231 -34 76 15 128 121 115 236 -12 107 -61 189 -136 227 -47 25
-82 25 -134 1z"/>
<path d="M2362 3220 c-84 -9 -127 -31 -113 -58 25 -47 90 -80 190 -98 157 -28
327 -10 408 43 78 50 77 85 -3 104 -55 13 -394 19 -482 9z"/>
<path d="M2296 3032 c-164 -1 -254 -6 -263 -13 -10 -9 -13 -52 -13 -181 l0
-170 31 6 c17 3 42 6 55 6 21 0 22 3 14 28 -5 15 -16 51 -24 80 l-15 52 34 0
c31 0 35 -3 41 -35 3 -19 10 -35 14 -35 5 0 6 -9 3 -20 -3 -11 -3 -20 0 -20 3
0 14 25 23 55 14 45 22 55 40 55 18 0 24 -9 35 -50 14 -56 32 -54 43 5 7 35
37 62 56 50 14 -8 13 -27 -4 -77 -8 -24 -21 -69 -30 -100 -15 -53 -19 -58 -45
-58 -27 0 -30 5 -42 50 -7 27 -15 48 -17 45 -3 -2 -8 -36 -11 -75 -6 -62 -5
-70 10 -70 13 0 19 -10 21 -32 2 -27 7 -33 30 -35 24 -2 27 2 30 35 3 32 6 37
28 37 23 0 25 -5 30 -50 l5 -50 14 33 c32 77 119 98 172 41 55 -58 32 -165
-38 -185 -16 -4 -30 -7 -33 -6 -3 0 -5 -27 -6 -61 0 -40 -8 -79 -22 -111 -12
-27 -22 -50 -22 -52 0 -2 56 -4 125 -4 l125 0 0 38 c0 21 6 46 13 56 8 10 12
30 9 44 l-5 25 -29 -34 c-17 -19 -28 -27 -25 -18 4 12 -1 14 -24 11 -26 -4
-29 -1 -29 22 0 32 25 44 48 23 21 -20 33 -20 55 0 9 9 17 12 17 7 0 -5 12 -9
28 -10 166 -6 217 -5 220 5 6 19 22 1 22 -25 0 -23 -3 -24 -52 -23 -29 1 -62
0 -73 0 -26 -3 109 -48 155 -53 l35 -3 3 408 c1 278 -1 414 -9 428 -10 20 -18
20 -257 17 -136 -2 -359 -4 -496 -6z m654 -54 c0 -4 12 -8 27 -10 17 -2 29
-10 31 -20 3 -15 -5 -18 -52 -18 -33 0 -56 4 -56 11 0 6 6 7 13 2 7 -4 5 3 -4
17 -16 25 -16 25 12 25 16 0 29 -3 29 -7z m-405 -158 c0 -22 -5 -25 -42 -28
-54 -4 -62 -32 -9 -32 28 0 34 -4 38 -25 6 -31 2 -35 -39 -35 -23 0 -33 -5
-33 -15 0 -11 12 -15 46 -15 44 0 45 -1 42 -27 -3 -27 -5 -28 -75 -31 l-73 -3
0 121 0 121 73 -3 c69 -3 72 -4 72 -28z m315 -95 c23 -19 45 -35 48 -35 4 -1
27 -18 52 -40 36 -32 41 -40 27 -46 -11 -4 -31 5 -56 25 -21 17 -42 31 -46 31
-3 0 -23 15 -43 34 -39 38 -46 37 -94 -8 -15 -14 -30 -26 -33 -26 -4 0 -25
-16 -48 -35 -32 -28 -43 -32 -55 -23 -12 10 -12 13 1 23 9 6 17 31 19 56 3 40
6 44 31 47 20 2 29 -2 35 -17 7 -19 8 -19 34 4 15 13 24 26 20 31 -4 4 -2 4 5
0 6 -3 14 -2 18 4 12 19 43 10 85 -25z m-173 -210 c15 -30 30 -55 34 -55 4 0
17 25 29 56 21 52 25 55 54 52 l31 -3 0 -95 c1 -114 -1 -120 -31 -120 -22 0
-24 4 -25 48 l-1 47 -21 -47 c-26 -61 -48 -62 -73 -6 l-19 43 -5 -40 c-4 -32
-10 -41 -27 -43 -23 -3 -23 -2 -23 107 l0 111 25 0 c21 0 30 -10 52 -55z m293
30 c0 -22 -4 -25 -35 -25 -24 0 -35 -5 -35 -15 0 -11 11 -15 36 -15 33 0 35
-2 32 -27 -2 -23 -8 -29 -35 -31 -45 -4 -42 -20 4 -24 28 -2 39 -8 41 -22 5
-26 -15 -36 -75 -36 l-53 0 0 110 0 110 60 0 c57 0 60 -1 60 -25z"/>
<path d="M2161 2506 l-23 -25 28 8 c16 4 30 15 32 24 5 24 -11 21 -37 -7z"/>
<path d="M2452 2500 c-17 -27 -15 -68 4 -87 22 -22 66 -6 78 29 20 56 -51 106
-82 58z"/>
</g>
</svg>
